# xmcd
#
# Track frame offsets: 
#        150
#        18970
#        33310
#        49780
#        69075
#        84697
#        108997
#        122892
#        139672
#        163970
#        196050
#        215695
#        239502
#        269287
#        284947
#        301102
#        321662
#        336925
#
# Disc length: 4725 seconds
#
# Revision: 2
# Processed by: cddbd v1.5.1PL2 Copyright (c) Steve Scherf et al.
# Submitted via: ExactAudioCopy v0.95b3
#
DISCID=13127312
DTITLE=Various Artist - Style#14 Sweet's afternoon
DYEAR=2003
DGENRE=Club-House
TTITLE0=daft punk - digital love
TTITLE1=phoenix - if i ever feel better
TTITLE2=frankie knuckles - the whistle song(ek 12inch mix)
TTITLE3=everything but the girl - temperamental(ananda project mix)
TTITLE4=flying disc federation - make your shadow smile(the rurals rem
TTITLE4=ix)
TTITLE5=q-burns abstract message - this time(rivera rotation remix)
TTITLE6=gazzara - the spirit of summer(dave warrin rmx)
TTITLE7=jon cutler and e-man - it's yours(ian pooley's "that's mine"mix)
TTITLE8=wagon cookin' - mar(long version)
TTITLE9=kaoru inoue presents chari chari - aurora(album version)
TTITLE10=mr. hermano - freeas the morning sun(full length vocal)
TTITLE11=rivera rotation - on the beach 6:00pm(original vocal version)
TTITLE12=ak - love(bayaka spirits mix #1)
TTITLE13=the dj rodriguez - peter pan's syndorome
TTITLE14=vibrazioni productions - life(natural mix)
TTITLE15=azymuth - mimosa
TTITLE16=petal pusher - rely on me(jay's bodega vocal)
TTITLE17=massive attack - hymn of the big wheel(nellee hooper mix)
EXTD=YEAR: 2003
EXTT0=
EXTT1=
EXTT2=
EXTT3=
EXTT4=
EXTT5=
EXTT6=
EXTT7=
EXTT8=
EXTT9=
EXTT10=
EXTT11=
EXTT12=
EXTT13=
EXTT14=
EXTT15=
EXTT16=
EXTT17=
PLAYORDER=
